<svg xmlns="http://www.w3.org/2000/svg" xmlns:xlink="http://www.w3.org/1999/xlink" viewBox="0 0 1080 1080">
  <defs>
    <linearGradient id="gA" x1="0" y1="0" x2="1" y2="1"><stop offset="0" stop-color="#6BBCFF"/><stop offset="1" stop-color="#2FA0FF"/></linearGradient>
    <linearGradient id="gV" x1="0" y1="0" x2="1" y2="1"><stop offset="0" stop-color="#C08BFF"/><stop offset="1" stop-color="#A65CFF"/></linearGradient>
    <linearGradient id="gC" x1="0" y1="0" x2="1" y2="1"><stop offset="0" stop-color="#5CF0D9"/><stop offset="1" stop-color="#25E8C8"/></linearGradient>
    <linearGradient id="gI" x1="0" y1="0" x2="1" y2="1"><stop offset="0" stop-color="#FF78C6"/><stop offset="1" stop-color="#FF3DAE"/></linearGradient>
    <linearGradient id="gL" x1="0" y1="0" x2="1" y2="1"><stop offset="0" stop-color="#FFFFFF" stop-opacity=".22"/><stop offset=".55" stop-color="#FFFFFF" stop-opacity=".06"/><stop offset="1" stop-color="#FFFFFF" stop-opacity=".12"/></linearGradient>
    <clipPath id="q"><rect x="170.0" y="170.0" width="740.0" height="740.0" rx="130.0"/></clipPath>
    <filter id="b" x="-20%" y="-20%" width="140%" height="140%"><feGaussianBlur stdDeviation="48.0"/></filter>
  </defs>
  <rect width="1080" height="1080" fill="#000000"/>
  <g id="c">
    <circle cx="330" cy="370" r="335" fill="url(#gA)"/>
    <circle cx="795" cy="300" r="230" fill="url(#gV)"/>
    <circle cx="730" cy="800" r="300" fill="url(#gC)"/>
    <circle cx="170" cy="880" r="160" fill="url(#gI)"/>
  </g>
  <g clip-path="url(#q)">
    <rect x="0" y="0" width="1080" height="1080" fill="#000000"/>
    <use href="#c" xlink:href="#c" filter="url(#b)"/>
    <rect x="170.0" y="170.0" width="740.0" height="740.0" fill="url(#gL)"/>
  </g>
  <rect x="171.0" y="171.0" width="738.0" height="738.0" rx="129.0" fill="none" stroke="#FFFFFF" stroke-opacity=".3" stroke-width="3.0"/>
  <g transform="translate(280.0,290.0) scale(5.000)"><path d="M81.53,62.74 A34,34 0 1 1 67,20.55" fill="none" stroke="#FFFFFF" stroke-width="20" stroke-linecap="round"/><circle cx="60.5" cy="50" r="9.5" fill="#2FA0FF"/></g>
</svg>
